<svg xmlns="http://www.w3.org/2000/svg" width="1056" height="26" viewBox="0 0 1056 26" font-family="system-ui, -apple-system, 'Segoe UI', Helvetica, Arial, sans-serif">
<rect x="0" y="0" width="1056" height="26" fill="#f8fafc"/>
<line x1="258" y1="0" x2="258" y2="26" stroke="#cbd5e1" stroke-width="1"/>
<line x1="288" y1="0" x2="288" y2="26" stroke="#eef2f6" stroke-width="1"/>
<line x1="318" y1="0" x2="318" y2="26" stroke="#eef2f6" stroke-width="1"/>
<line x1="348" y1="0" x2="348" y2="26" stroke="#cbd5e1" stroke-width="1"/>
<line x1="378" y1="0" x2="378" y2="26" stroke="#eef2f6" stroke-width="1"/>
<line x1="408" y1="0" x2="408" y2="26" stroke="#eef2f6" stroke-width="1"/>
<line x1="438" y1="0" x2="438" y2="26" stroke="#cbd5e1" stroke-width="1"/>
<line x1="468" y1="0" x2="468" y2="26" stroke="#eef2f6" stroke-width="1"/>
<line x1="498" y1="0" x2="498" y2="26" stroke="#eef2f6" stroke-width="1"/>
<line x1="528" y1="0" x2="528" y2="26" stroke="#cbd5e1" stroke-width="1"/>
<line x1="558" y1="0" x2="558" y2="26" stroke="#eef2f6" stroke-width="1"/>
<line x1="588" y1="0" x2="588" y2="26" stroke="#eef2f6" stroke-width="1"/>
<line x1="618" y1="0" x2="618" y2="26" stroke="#cbd5e1" stroke-width="1"/>
<line x1="648" y1="0" x2="648" y2="26" stroke="#eef2f6" stroke-width="1"/>
<line x1="678" y1="0" x2="678" y2="26" stroke="#eef2f6" stroke-width="1"/>
<line x1="708" y1="0" x2="708" y2="26" stroke="#cbd5e1" stroke-width="1"/>
<line x1="738" y1="0" x2="738" y2="26" stroke="#eef2f6" stroke-width="1"/>
<line x1="768" y1="0" x2="768" y2="26" stroke="#eef2f6" stroke-width="1"/>
<line x1="798" y1="0" x2="798" y2="26" stroke="#cbd5e1" stroke-width="1"/>
<line x1="828" y1="0" x2="828" y2="26" stroke="#eef2f6" stroke-width="1"/>
<line x1="858" y1="0" x2="858" y2="26" stroke="#eef2f6" stroke-width="1"/>
<line x1="888" y1="0" x2="888" y2="26" stroke="#cbd5e1" stroke-width="1"/>
<line x1="918" y1="0" x2="918" y2="26" stroke="#eef2f6" stroke-width="1"/>
<line x1="948" y1="0" x2="948" y2="26" stroke="#eef2f6" stroke-width="1"/>
<line x1="978" y1="0" x2="978" y2="26" stroke="#cbd5e1" stroke-width="1"/>
<line x1="1008" y1="0" x2="1008" y2="26" stroke="#eef2f6" stroke-width="1"/>
<line x1="1038" y1="0" x2="1038" y2="26" stroke="#cbd5e1" stroke-width="1"/>
<line x1="618" y1="0" x2="618" y2="26" stroke="#b45309" stroke-width="1.5" stroke-dasharray="5 4" stroke-opacity="0.4"/>
<line x1="978" y1="0" x2="978" y2="26" stroke="#b91c1c" stroke-width="1.5" stroke-dasharray="5 4" stroke-opacity="0.4"/>
<line x1="0" y1="25.5" x2="1056" y2="25.5" stroke="#e8edf2" stroke-width="1"/>
<text x="16" y="17.0" font-size="11" fill="#1e293b">A-T2  Tree / key-derivation vectors</text>
<rect x="258" y="5.5" width="180" height="15" rx="3.5" fill="#0891b2"/>
<rect x="258" y="5.5" width="3" height="15" rx="1.5" fill="#155e75"/>
<text x="267.0" y="16.5" font-size="10" font-weight="600" fill="#ffffff">A-T2</text>
</svg>
